<?xml version="1.0" encoding="utf-8"?>
<svg version="1.1" id="图层_1" xmlns="http://www.w3.org/2000/svg" xmlns:xlink="http://www.w3.org/1999/xlink" x="0px" y="0px"
	 viewBox="0 0 16 16" style="enable-background:new 0 0 16 16;" xml:space="preserve"  width="16" height="16">
<style type="text/css">
	.st0{fill:#5084B5;}
	.st1{enable-background:new;}
	.st2{fill:#FFFFFF;}
</style>
<path class="st0" d="M2,0h12c1.1,0,2,0.9,2,2v12c0,1.1-0.9,2-2,2H2c-1.1,0-2-0.9-2-2V2C0,0.9,0.9,0,2,0z"/>
<g class="st1">
	<path class="st2" d="M14,2.5c0.2-0.2,0.4-0.2,0.5,0l0.9,0.9c0.2,0.2,0.2,0.4,0,0.6l-9.7,9.7c-0.2,0.2-0.4,0.2-0.6,0L0.9,9.3
		C0.7,9.2,0.7,9,0.9,8.8l0.9-0.9c0.2-0.2,0.4-0.2,0.5,0L5.5,11L14,2.5z"/>
</g>
</svg>
