<svg id="图层_1" data-name="图层 1" xmlns="http://www.w3.org/2000/svg" xmlns:xlink="http://www.w3.org/1999/xlink"
     viewBox="0 0 40 45" width="40" height="40">
    <defs>
        <style>.cls-1{fill:#f45555;}.cls-2{fill:url(#未命名的渐变_4);}</style>
        <linearGradient id="未命名的渐变_4" x1="20.07" y1="2.62" x2="20.07" y2="38" gradientUnits="userSpaceOnUse">
            <stop offset="0" stop-color="#fff"/>
            <stop offset="1" stop-color="#e6e6e6"/>
        </linearGradient>
    </defs>
    <title>iot-icon</title>
    <path class="cls-1"
          d="M39.92,19.85A19.85,19.85,0,1,0,13.2,38.46l.69.4c3.41,2.07,5.78,4.94,6.17,6.12.35-1.19,3-4.1,6.17-6.22.1-.1.25-.15.35-.25A19.67,19.67,0,0,0,39.92,19.85Zm0,0"/>
    <circle class="cls-2" cx="20.07" cy="19.72" r="17.69"/>
    <path class="cls-1"
          d="M30.51,30.21v.73a1.65,1.65,0,0,1-1.65,1.65H12.39a1.65,1.65,0,0,1-1.65-1.65v-.73h0a1.83,1.83,0,0,1,.77-1.4L14,27.23a11.53,11.53,0,1,1,13.16,0l2.53,1.58A1.83,1.83,0,0,1,30.51,30.21ZM20.62,26a8.24,8.24,0,1,0-8.24-8.24A8.24,8.24,0,0,0,20.62,26Zm0-14.83A6.59,6.59,0,1,1,14,17.76a6.59,6.59,0,0,1,6.59-6.59Zm.82,3.29a.82.82,0,0,0-.82-.82,4.13,4.13,0,0,0-4.12,4.12.82.82,0,1,0,1.65,0,2.48,2.48,0,0,1,2.47-2.47A.82.82,0,0,0,21.44,14.47Z"/>
</svg>
